<svg width="15" height="15" viewBox="0 0 15 15" fill="none" xmlns="http://www.w3.org/2000/svg">
<path fill-rule="evenodd" clip-rule="evenodd" d="M4.20763 4.54202H3.14008L3.08592 4.86697C2.91489 5.8931 3.15697 6.61258 3.61129 7.07117C3.92843 7.39128 4.31886 7.55323 4.66223 7.61801L4.99384 11.9309H4.24711V12.7087H10.4693V11.9309H9.72264L10.0539 7.62699C10.3528 7.582 10.6115 7.48 10.8302 7.32908C11.1309 7.12153 11.3304 6.83903 11.4583 6.54386C11.7087 5.96607 11.7031 5.3005 11.6309 4.86697L11.5767 4.54202H4.98681C4.96189 4.16079 4.97785 3.70937 5.07964 3.33039C5.14614 3.08278 5.24131 2.89637 5.35701 2.77645C5.46243 2.66719 5.59836 2.59757 5.80267 2.59757V1.81979C5.38475 1.81979 5.04754 1.97703 4.79728 2.2364C4.55731 2.48512 4.41429 2.80913 4.32848 3.12865C4.20411 3.59172 4.1832 4.10872 4.20763 4.54202ZM9.27177 7.65313H5.44501L5.77391 11.9309H8.94256L9.27177 7.65313ZM5.02512 6.87535H9.69174C10.0131 6.87535 10.2332 6.79609 10.3884 6.68898C10.5454 6.58056 10.6619 6.42556 10.7446 6.23461C10.867 5.95212 10.9046 5.61491 10.895 5.31979H3.81443C3.77179 5.95432 3.95755 6.31556 4.16383 6.52378C4.42028 6.78263 4.77736 6.8753 5.02512 6.87535C5.02511 6.87535 5.02514 6.87535 5.02512 6.87535Z" fill="black"/>
<ellipse cx="6.15515" cy="2.2331" rx="0.765625" ry="0.65625" fill="black"/>
</svg>
